<?xml version="1.0" encoding="UTF-8"?>
<svg xmlns="http://www.w3.org/2000/svg" xmlns:xlink="http://www.w3.org/1999/xlink" width="115px" height="102px" viewBox="0 0 114 102" version="1.1">
<g id="surface1">
<path style=" stroke:none;fill-rule:nonzero;fill:rgb(0%,0%,0%);fill-opacity:1;" d="M 111.625 0 L 95.988281 0 C 93.871094 0 92.824219 2.570312 94.308594 4.085938 L 97.652344 7.449219 L 88.011719 17.152344 C 83.621094 14.363281 78.414062 12.75 72.832031 12.75 C 66.164062 12.75 60.046875 15.0625 55.179688 18.90625 C 57.949219 22.234375 60.128906 26.078125 61.53125 30.28125 C 64.402344 27.332031 68.398438 25.5 72.832031 25.5 C 81.5625 25.5 88.667969 32.652344 88.667969 41.4375 C 88.667969 50.222656 81.5625 57.375 72.832031 57.375 C 68.417969 57.375 64.402344 55.542969 61.53125 52.59375 C 60.128906 56.796875 57.96875 60.640625 55.179688 63.96875 C 60.027344 67.835938 66.164062 70.125 72.832031 70.125 C 88.566406 70.125 101.332031 57.273438 101.332031 41.4375 C 101.332031 35.820312 99.730469 30.578125 96.960938 26.15625 L 106.597656 16.457031 L 109.941406 19.820312 C 110.417969 20.300781 111.011719 20.519531 111.605469 20.519531 C 112.832031 20.519531 114 19.5625 114 18.128906 L 114 2.390625 C 114 1.074219 112.929688 0 111.625 0 Z M 28.5 12.75 C 12.765625 12.75 0 25.601562 0 41.4375 C 0 55.085938 9.480469 66.519531 22.167969 69.40625 L 22.167969 79.6875 L 15.042969 79.6875 C 13.734375 79.6875 12.667969 80.761719 12.667969 82.078125 L 12.667969 90.046875 C 12.667969 91.363281 13.734375 92.4375 15.042969 92.4375 L 22.167969 92.4375 L 22.167969 99.609375 C 22.167969 100.925781 23.234375 102 24.542969 102 L 32.457031 102 C 33.765625 102 34.832031 100.925781 34.832031 99.609375 L 34.832031 92.4375 L 41.957031 92.4375 C 43.265625 92.4375 44.332031 91.363281 44.332031 90.046875 L 44.332031 82.078125 C 44.332031 80.761719 43.265625 79.6875 41.957031 79.6875 L 34.832031 79.6875 L 34.832031 69.40625 C 47.519531 66.5 57 55.085938 57 41.4375 C 57 25.597656 44.234375 12.75 28.5 12.75 Z M 28.5 57.375 C 19.773438 57.375 12.667969 50.222656 12.667969 41.4375 C 12.667969 32.652344 19.773438 25.5 28.5 25.5 C 37.226562 25.5 44.332031 32.652344 44.332031 41.4375 C 44.332031 50.222656 37.226562 57.375 28.5 57.375 Z M 28.5 57.375 "/>
</g>
</svg>
